<?xml version="1.0" encoding="UTF-8" standalone="no"?>
<!DOCTYPE svg PUBLIC "-//W3C//DTD SVG 1.1//EN" "http://www.w3.org/Graphics/SVG/1.1/DTD/svg11.dtd">
<svg width="100%" height="100%" viewBox="-60 -60 16676 1551" version="1.1" xmlns="http://www.w3.org/2000/svg" xmlns:xlink="http://www.w3.org/1999/xlink" xml:space="preserve" xmlns:serif="http://www.serif.com/" style="fill-rule:evenodd;clip-rule:evenodd;stroke-linejoin:round;stroke-miterlimit:2;">
    <g transform="matrix(1,0,0,1,-6485.69,-8580.43)">
        <g transform="matrix(1,0,0,1,0,1315.04)">
            <g transform="matrix(1.07325,0,0,1.07325,814.659,1900.62)">
                <path d="M5534.64,5464.39C5514.69,5607.8 5499.73,5749.34 5489.75,5889C5479.78,6028.67 5469.8,6168.33 5459.82,6308C5444.86,6305.51 5429.9,6304.26 5414.93,6304.26L5327.95,6304.26C5313.61,6304.26 5298.96,6305.51 5283.99,6308C5323.9,6093.51 5359.44,5880.27 5390.61,5668.28C5421.79,5456.29 5450.47,5241.18 5476.66,5022.95C5490.38,5025.44 5503.16,5027.62 5515,5029.49C5526.85,5031.36 5539.63,5032.3 5553.35,5032.3C5564.57,5032.3 5576.42,5031.36 5588.89,5029.49C5601.36,5027.62 5614.45,5025.44 5628.17,5022.95C5661.84,5097.77 5697.07,5173.84 5733.86,5251.15C5770.64,5328.47 5807.43,5405.47 5844.22,5482.16C5881,5558.85 5917.79,5633.99 5954.58,5707.56C5991.36,5781.13 6026.59,5850.97 6060.26,5917.06C6135.08,5777.39 6209.59,5631.18 6283.79,5478.42C6357.99,5325.66 6428.76,5173.84 6496.1,5022.95C6527.27,5029.18 6554.08,5032.3 6576.53,5032.3C6597.73,5032.3 6623.91,5029.18 6655.09,5022.95C6667.56,5130.19 6680.97,5245.54 6695.31,5368.99C6709.65,5492.45 6723.68,5613.1 6737.39,5730.94C6751.11,5848.78 6764.83,5958.83 6778.55,6061.09C6792.26,6163.35 6804.73,6245.65 6815.96,6308C6791.02,6305.51 6765.76,6304.26 6740.2,6304.26L6587.75,6304.26C6561.56,6304.26 6535.38,6305.51 6509.19,6308C6502.95,6179.56 6492.67,6040.51 6478.33,5890.87C6463.99,5741.23 6449.33,5592.83 6434.37,5445.69L6430.63,5445.69C6359.55,5592.83 6289.71,5737.49 6221.13,5879.65C6152.54,6021.81 6084.58,6164.59 6017.24,6308C6011.01,6306.75 6005.08,6305.82 5999.47,6305.19C5993.86,6304.57 5987.94,6304.26 5981.7,6304.26C5975.47,6304.26 5969.54,6304.57 5963.93,6305.19C5958.32,6305.82 5952.4,6306.75 5946.16,6308C5878.82,6168.33 5811.79,6028.67 5745.08,5889C5678.36,5749.34 5609.47,5607.8 5538.39,5464.39L5534.64,5464.39Z" style="fill:rgb(255,255,255);fill-rule:nonzero;"/>
                <path d="M7541.72,5584.11C7566.66,5547.94 7591.6,5507.1 7616.54,5461.59C7641.48,5416.07 7665.8,5368.37 7689.49,5318.49C7713.19,5268.61 7736.26,5218.42 7758.7,5167.91C7781.15,5117.41 7802.97,5069.09 7824.17,5022.95C7837.89,5025.44 7851.92,5027.62 7866.26,5029.49C7880.6,5031.36 7895.25,5032.3 7910.22,5032.3C7925.18,5032.3 7939.83,5031.36 7954.17,5029.49C7968.51,5027.62 7983.79,5025.44 8000,5022.95C7978.8,5057.86 7952.3,5103.69 7920.5,5160.43C7888.7,5217.17 7854.72,5278.59 7818.56,5344.68C7782.4,5410.77 7745.92,5478.42 7709.13,5547.63C7672.35,5616.84 7638.99,5680.75 7609.06,5739.36C7609.06,5769.29 7608.44,5799.53 7607.19,5830.08C7605.94,5860.63 7605.32,5891.49 7605.32,5922.67C7605.32,5986.27 7606.26,6049.24 7608.12,6111.59C7610,6173.94 7615.3,6239.41 7624.03,6308C7597.84,6305.51 7571.34,6304.26 7544.53,6304.26L7385.53,6304.26C7358.72,6304.26 7332.22,6305.51 7306.03,6308C7308.53,6250.64 7312.89,6192.03 7319.13,6132.17C7325.36,6072.31 7328.48,6012.46 7328.48,5952.6C7328.48,5923.92 7328.17,5894.93 7327.55,5865.62C7326.92,5836.32 7325.99,5807.32 7324.74,5778.64C7293.56,5716.29 7257.71,5646.77 7217.19,5570.08C7176.66,5493.39 7137.38,5418.88 7099.34,5346.55C7061.31,5274.22 7026.39,5208.75 6994.59,5150.14C6962.79,5091.53 6939.41,5049.13 6924.45,5022.95C6953.13,5025.44 6981.19,5027.62 7008.62,5029.49C7036.06,5031.36 7064.11,5032.3 7092.79,5032.3C7121.48,5032.3 7149.22,5031.36 7176.03,5029.49C7202.84,5027.62 7230.59,5025.44 7259.27,5022.95C7280.47,5069.09 7304.48,5120.21 7331.29,5176.33C7358.1,5232.45 7384.6,5287.32 7410.78,5340.94C7436.97,5394.56 7461.29,5443.19 7483.74,5486.84C7506.18,5530.48 7524.26,5562.91 7537.98,5584.11L7541.72,5584.11Z" style="fill:rgb(255,255,255);fill-rule:nonzero;"/>
                <path d="M8742.6,5275.47C8702.7,5168.22 8627.25,5114.6 8516.27,5114.6C8458.9,5114.6 8412.14,5131.44 8375.98,5165.11C8339.81,5198.78 8321.73,5238.06 8321.73,5282.95C8321.73,5329.09 8335.76,5366.81 8363.82,5396.12C8391.88,5425.42 8427.1,5451.92 8469.5,5475.61C8511.9,5499.31 8557.42,5522.07 8606.05,5543.89C8654.69,5565.71 8700.2,5592.52 8742.6,5624.32C8785,5656.12 8820.23,5694.78 8848.28,5740.29C8876.34,5785.81 8890.37,5844.11 8890.37,5915.19C8890.37,5977.54 8878.53,6034.59 8854.83,6086.34C8831.14,6138.09 8797.47,6182.36 8753.82,6219.15C8710.18,6255.94 8658.11,6283.99 8597.64,6303.32C8537.15,6322.65 8469.5,6332.32 8394.68,6332.32C8327.34,6332.32 8267.17,6325.15 8214.18,6310.81C8161.18,6296.47 8120.96,6278.69 8093.53,6257.49C8106,6213.85 8116.6,6173.94 8125.33,6137.78C8134.06,6101.62 8141.54,6062.34 8147.77,6019.94L8183.31,6019.94C8188.3,6047.37 8197.65,6073.25 8211.37,6097.57C8225.09,6121.88 8242.55,6143.39 8263.75,6162.1C8284.94,6180.8 8310.51,6195.46 8340.44,6206.06C8370.36,6216.66 8404.03,6221.95 8441.45,6221.95C8516.27,6221.95 8571.45,6203.25 8606.99,6165.84C8642.53,6128.43 8660.3,6083.54 8660.3,6031.16C8660.3,5983.78 8646.58,5945.12 8619.15,5915.19C8591.71,5885.26 8557.42,5858.76 8516.27,5835.69C8475.11,5812.62 8430.22,5790.18 8381.59,5768.35C8332.95,5746.53 8288.06,5720.03 8246.91,5688.86C8205.76,5657.68 8171.47,5619.33 8144.03,5573.82C8116.6,5528.3 8102.88,5470 8102.88,5398.92C8102.88,5334.08 8114.41,5276.72 8137.49,5226.83C8160.55,5176.95 8191.42,5135.18 8230.08,5101.51C8268.73,5067.84 8313.31,5042.28 8363.82,5024.82C8414.32,5007.36 8467.63,4998.63 8523.75,4998.63C8591.09,4998.63 8650.01,5006.73 8700.51,5022.95C8751.02,5039.16 8794.35,5061.6 8830.51,5090.29C8819.29,5118.97 8809.63,5146.71 8801.52,5173.52C8793.42,5200.34 8783.13,5234.32 8770.66,5275.47L8742.6,5275.47Z" style="fill:rgb(255,255,255);fill-rule:nonzero;"/>
                <path d="M9887.36,5395.18C9864.92,5458.78 9839.35,5530.17 9810.67,5609.36C9781.99,5688.54 9753,5769.29 9723.69,5851.59C9694.39,5933.89 9666.02,6014.95 9638.58,6094.76C9611.15,6174.57 9587.46,6245.65 9567.5,6308C9538.82,6305.51 9507.02,6304.26 9472.11,6304.26L9423.47,6304.26C9407.26,6304.26 9391.05,6305.51 9374.84,6308C9361.12,6256.87 9343.04,6190.78 9320.59,6109.72C9298.15,6028.67 9273.83,5942.62 9247.64,5851.59C9221.46,5760.56 9194.65,5668.59 9167.21,5575.69C9139.78,5482.78 9114.21,5397.68 9090.52,5320.36C9066.83,5243.05 9046.87,5177.27 9030.66,5123.02C9014.45,5068.78 9003.85,5035.42 8998.86,5022.95C9026.3,5025.44 9053.11,5027.62 9079.3,5029.49C9105.48,5031.36 9131.05,5032.3 9155.99,5032.3C9180.93,5032.3 9206.18,5031.36 9231.74,5029.49C9257.31,5027.62 9282.56,5025.44 9307.5,5022.95C9326.21,5102.76 9346.16,5184.75 9367.36,5268.92C9388.56,5353.1 9410.07,5436.02 9431.89,5517.7C9453.71,5599.38 9474.91,5678.57 9495.49,5755.26C9516.06,5831.95 9535.08,5902.72 9552.54,5967.56L9556.28,5967.56C9583.72,5889 9613.33,5803.89 9645.13,5712.24C9676.93,5620.58 9707.79,5530.8 9737.72,5442.88C9767.65,5354.97 9795.09,5273.91 9820.02,5199.71C9844.97,5125.51 9864.29,5066.59 9878.01,5022.95C9894.22,5025.44 9909.81,5027.62 9924.77,5029.49C9939.74,5031.36 9955.33,5032.3 9971.54,5032.3C9987.75,5032.3 10003.3,5031.36 10018.3,5029.49C10033.3,5027.62 10048.9,5025.44 10065.1,5022.95C10070.1,5050.38 10079.4,5087.17 10093.1,5133.31C10106.8,5179.45 10122.7,5230.57 10140.8,5286.69C10158.9,5342.81 10178.2,5402.04 10198.8,5464.39C10219.4,5526.74 10240,5588.47 10260.5,5649.57C10281.1,5710.68 10300.1,5768.66 10317.6,5823.53C10335,5878.4 10349.4,5926.41 10360.6,5967.56L10364.3,5967.56C10389.3,5889 10415.8,5802.33 10443.8,5707.56C10471.9,5612.79 10499,5521.13 10525.2,5432.59C10551.4,5344.05 10575.1,5263 10596.3,5189.42C10617.5,5115.85 10632.5,5060.36 10641.2,5022.95C10672.4,5029.18 10698.6,5032.3 10719.7,5032.3C10733.5,5032.3 10747.5,5031.36 10761.8,5029.49C10776.2,5027.62 10790.8,5025.44 10805.8,5022.95C10797.1,5046.64 10783.3,5085.3 10764.6,5138.92C10745.9,5192.54 10724.1,5255.83 10699.2,5328.78C10674.2,5401.73 10647.4,5481.23 10618.7,5567.27C10590.1,5653.32 10561.4,5739.98 10532.7,5827.27C10504,5914.57 10476.3,5999.99 10449.5,6083.54C10422.6,6167.09 10399.3,6241.91 10379.3,6308C10350.6,6305.51 10318.8,6304.26 10283.9,6304.26L10235.3,6304.26C10219.1,6304.26 10202.9,6305.51 10186.6,6308C10146.7,6155.86 10101.5,6004.66 10051,5854.4C10000.5,5704.13 9947.22,5551.06 9891.1,5395.18L9887.36,5395.18Z" style="fill:rgb(255,255,255);fill-rule:nonzero;"/>
                <path d="M11004.1,5541.08C11004.1,5437.58 11002.8,5345.61 11000.3,5265.18C10997.8,5184.75 10994.1,5104 10989.1,5022.95C11010.3,5025.44 11033.4,5027.62 11058.3,5029.49C11083.3,5031.36 11111.3,5032.3 11142.5,5032.3C11173.7,5032.3 11201.7,5031.36 11226.7,5029.49C11251.6,5027.62 11274.7,5025.44 11295.9,5022.95C11290.9,5104 11287.1,5184.75 11284.6,5265.18C11282.2,5345.61 11280.9,5437.58 11280.9,5541.08L11280.9,5795.48C11280.9,5898.98 11282.2,5990.94 11284.6,6071.38C11287.1,6151.81 11290.9,6230.69 11295.9,6308C11274.7,6305.51 11251.6,6304.26 11226.7,6304.26L11058.3,6304.26C11033.4,6304.26 11010.3,6305.51 10989.1,6308C10994.1,6230.69 10997.8,6151.81 11000.3,6071.38C11002.8,5990.94 11004.1,5898.98 11004.1,5795.48L11004.1,5541.08Z" style="fill:rgb(255,255,255);fill-rule:nonzero;"/>
                <path d="M11636.3,5395.18C11636.3,5309.14 11635.1,5236.81 11632.6,5178.2C11630.1,5119.59 11628.2,5067.84 11627,5022.95C11661.9,5029.18 11689.9,5032.3 11711.1,5032.3C11732.3,5032.3 11760.4,5029.18 11795.3,5022.95C11931.2,5173.84 12065.6,5322.23 12198.4,5468.13C12331.2,5614.03 12467.4,5762.43 12607.1,5913.32L12607.1,5569.14C12607.1,5508.04 12606.8,5447.87 12606.2,5388.64C12605.6,5329.4 12604.9,5274.84 12604.3,5224.96C12603.7,5175.08 12602.4,5132.06 12600.6,5095.9C12598.7,5059.73 12596.5,5035.42 12594,5022.95C12628.9,5029.18 12657,5032.3 12678.2,5032.3C12699.4,5032.3 12727.5,5029.18 12762.4,5022.95C12756.1,5136.43 12751.1,5238.99 12747.4,5330.65C12743.7,5422.3 12740.5,5508.66 12738.1,5589.72C12735.6,5670.77 12734,5750.89 12733.4,5830.08C12732.8,5909.27 12732.4,5993.75 12732.4,6083.54L12732.4,6308C12707.5,6305.51 12681.9,6304.26 12655.7,6304.26C12628.3,6304.26 12604,6305.51 12582.8,6308C12325.9,6008.72 12053.4,5707.56 11765.4,5404.53C11764.1,5440.7 11763.2,5476.86 11762.6,5513.03C11761.9,5549.19 11761.6,5585.98 11761.6,5623.39L11761.6,5840.37C11761.6,5915.19 11761.9,5978.79 11762.6,6031.16C11763.2,6083.54 11764.1,6127.81 11765.4,6163.97C11766.6,6200.13 11767.9,6229.75 11769.1,6252.82C11770.4,6275.89 11771.6,6294.28 11772.9,6308C11757.9,6305.51 11742.9,6304.26 11728,6304.26L11684.9,6304.26C11656.3,6304.26 11627.6,6305.51 11598.9,6308C11601.4,6298.02 11604.5,6262.48 11608.2,6201.38C11612,6140.28 11616,6065.77 11620.4,5977.85C11624.8,5889.94 11628.5,5794.54 11631.6,5691.66C11634.8,5588.78 11636.3,5489.95 11636.3,5395.18Z" style="fill:rgb(255,255,255);fill-rule:nonzero;"/>
                <path d="M14142.8,5301.65C14102.9,5245.54 14053,5200.34 13993.2,5166.04C13933.3,5131.75 13860.4,5114.6 13774.3,5114.6C13717,5114.6 13659.9,5126.76 13603.2,5151.08C13546.4,5175.4 13495.9,5211.87 13451.7,5260.5C13407.4,5309.14 13371.5,5369.93 13344.1,5442.88C13316.7,5515.83 13302.9,5601.56 13302.9,5700.08C13302.9,5774.9 13313.2,5844.11 13333.8,5907.71C13354.4,5971.31 13384,6026.48 13422.7,6073.25C13461.3,6120.01 13508.7,6156.49 13564.8,6182.67C13620.9,6208.86 13685.2,6221.95 13757.5,6221.95C13773.7,6221.95 13792.1,6221.02 13812.7,6219.15C13833.2,6217.28 13853.2,6215.1 13872.5,6212.6C13891.9,6210.11 13909.6,6206.68 13925.8,6202.32C13942,6197.95 13953.9,6193.27 13961.4,6188.29C13963.9,6173.32 13965.4,6154.62 13966.1,6132.17C13966.7,6109.72 13967,6084.78 13967,6057.35C13967,5956.34 13965.1,5881.83 13961.4,5833.82C13957.6,5785.81 13955.1,5753.08 13953.9,5735.62C13966.4,5738.11 13982.9,5740.29 14003.5,5742.16C14024,5744.03 14053.7,5744.97 14092.3,5744.97C14137.2,5744.97 14170.6,5744.03 14192.4,5742.16C14214.2,5740.29 14231.4,5738.11 14243.8,5735.62C14241.3,5745.59 14239.1,5761.81 14237.3,5784.25C14235.4,5806.7 14233.8,5832.57 14232.6,5861.88C14231.4,5891.18 14230.4,5922.36 14229.8,5955.4C14229.2,5988.45 14228.9,6019.94 14228.9,6049.87L14228.9,6111.59C14228.9,6142.77 14229.2,6171.76 14229.8,6198.57C14230.4,6225.39 14232,6244.4 14234.5,6255.62C14152.2,6279.32 14068.9,6298.02 13984.8,6311.74C13900.6,6325.46 13817.3,6332.32 13735,6332.32C13627.8,6332.32 13529,6318.29 13438.6,6290.23C13348.2,6262.17 13270.2,6221.02 13204.7,6166.78C13139.3,6112.53 13088.1,6047.06 13051.4,5970.37C13014.6,5893.68 12996.2,5807.32 12996.2,5711.3C12996.2,5592.83 13015.8,5489.02 13055.1,5399.86C13094.4,5310.7 13148.6,5236.5 13217.8,5177.27C13287.1,5118.03 13369,5073.45 13463.8,5043.52C13558.6,5013.59 13660.8,4998.63 13770.6,4998.63C13865.4,4998.63 13947.3,5008.29 14016.6,5027.62C14085.8,5046.95 14154,5074.7 14221.4,5110.86C14211.4,5143.28 14201.7,5175.08 14192.4,5206.26C14183,5237.43 14175.2,5269.23 14169,5301.65L14142.8,5301.65Z" style="fill:rgb(255,255,255);fill-rule:nonzero;"/>
                <path d="M14666.6,4998.63C14752.6,5175.71 14839.6,5347.8 14927.5,5514.9C15015.4,5682 15107.4,5853.46 15203.4,6029.29C15215.9,6005.6 15234,5971.62 15257.7,5927.35C15281.3,5883.08 15308.8,5832.26 15340,5774.9C15371.1,5717.54 15404.5,5655.5 15440,5588.78C15475.6,5522.07 15511.7,5454.41 15548.5,5385.83C15585.3,5317.24 15621.8,5249.9 15657.9,5183.81C15694.1,5117.72 15727.8,5055.99 15759,4998.63L15783.3,4998.63C15797,5118.34 15809.8,5234.01 15821.6,5345.61C15833.5,5457.22 15845.6,5566.96 15858.1,5674.83C15870.6,5782.69 15883,5889.31 15895.5,5994.69C15908,6100.06 15921.7,6204.5 15936.7,6308C15921.7,6305.51 15907,6304.26 15892.7,6304.26L15804.8,6304.26C15790.4,6304.26 15775.8,6305.51 15760.8,6308C15747.1,6142.15 15733.4,5981.28 15719.7,5825.4C15706,5669.53 15689.1,5510.53 15669.2,5348.42L15665.4,5348.42C15579.4,5505.54 15494.9,5661.73 15412,5816.99C15329,5972.24 15250.2,6134.66 15175.3,6304.26L15158.5,6304.26C15083.7,6147.13 15005.4,5989.7 14923.8,5831.95C14842.1,5674.2 14760.1,5513.03 14677.8,5348.42L14674,5348.42C14665.3,5425.73 14655.7,5509.6 14645.1,5600.01C14634.5,5690.41 14624.8,5779.57 14616.1,5867.49C14607.3,5955.4 14599.8,6038.33 14593.6,6116.27C14587.4,6194.21 14584.3,6258.12 14584.3,6308C14564.3,6305.51 14542.5,6304.26 14518.8,6304.26C14495.1,6304.26 14473.3,6305.51 14453.3,6308C14469.5,6206.99 14486.4,6100.37 14503.8,5988.14C14521.3,5875.91 14538.1,5763.05 14554.3,5649.57C14570.5,5536.1 14585.5,5424.18 14599.2,5313.81C14612.9,5203.45 14624.8,5098.39 14634.8,4998.63L14666.6,4998.63Z" style="fill:rgb(255,255,255);fill-rule:nonzero;"/>
                <path d="M16413.6,5726.27C16446.1,5726.27 16479.7,5726.89 16514.6,5728.14C16549.6,5729.38 16583.2,5730.01 16615.7,5730.01C16650.6,5730.01 16685.5,5729.69 16720.4,5729.07C16755.3,5728.45 16790.2,5727.51 16825.2,5726.27L16617.5,5251.15L16413.6,5726.27ZM17242.3,6308C17224.8,6305.51 17208.3,6304.26 17192.7,6304.26L17093.6,6304.26C17078,6304.26 17061.5,6305.51 17044,6308C17035.3,6279.32 17023.4,6244.71 17008.5,6204.19C16993.5,6163.66 16977,6121.26 16958.9,6076.99C16940.8,6032.72 16922.4,5987.83 16903.7,5942.31C16885,5896.8 16867.6,5853.46 16851.3,5812.31C16811.4,5811.06 16770.9,5810.13 16729.8,5809.5C16688.6,5808.88 16647.5,5808.57 16606.3,5808.57C16567.6,5808.57 16529.6,5808.88 16492.2,5809.5C16454.8,5810.13 16416.8,5811.06 16378.1,5812.31C16338.2,5909.58 16302,6002.17 16269.6,6090.08C16237.2,6178 16212.9,6250.64 16196.7,6308C16175.5,6305.51 16152.4,6304.26 16127.4,6304.26C16102.5,6304.26 16079.4,6305.51 16058.2,6308C16159.2,6089.77 16257.8,5872.79 16353.8,5657.06C16449.8,5441.32 16546.4,5221.85 16643.7,4998.63L16679.3,4998.63C16709.2,5070.96 16741.6,5149.21 16776.5,5233.38C16811.4,5317.56 16847,5402.66 16883.1,5488.71C16919.3,5574.75 16955.5,5660.17 16991.6,5744.97C17027.8,5829.77 17061.8,5908.64 17093.6,5981.59C17125.4,6054.54 17154.1,6119.7 17179.6,6177.06C17205.2,6234.43 17226.1,6278.07 17242.3,6308Z" style="fill:rgb(255,255,255);fill-rule:nonzero;"/>
                <path d="M17579,5507.41C17579,5377.72 17577.1,5248.66 17573.4,5120.21C17540.9,5120.21 17507,5120.53 17471.4,5121.15C17435.9,5121.77 17400.3,5123.02 17364.8,5124.89C17329.3,5126.76 17295,5128.94 17261.9,5131.44C17228.9,5133.93 17199.3,5137.05 17173.1,5140.79C17179.3,5118.34 17182.4,5098.39 17182.4,5080.93C17182.4,5067.22 17179.3,5047.89 17173.1,5022.95C17255.4,5025.44 17335.8,5027.62 17414.4,5029.49C17492.9,5031.36 17573.4,5032.3 17655.7,5032.3C17738,5032.3 17818.4,5031.36 17897,5029.49C17975.5,5027.62 18056,5025.44 18138.3,5022.95C18132,5047.89 18128.9,5067.84 18128.9,5082.8C18128.9,5099.02 18132,5118.34 18138.3,5140.79C18112.1,5137.05 18082.5,5133.93 18049.4,5131.44C18016.4,5128.94 17982.1,5126.76 17946.5,5124.89C17911,5123.02 17875.5,5121.77 17839.9,5121.15C17804.4,5120.53 17770.4,5120.21 17738,5120.21C17734.2,5248.66 17732.4,5377.72 17732.4,5507.41L17732.4,5829.14C17732.4,5911.45 17733.9,5992.5 17737,6072.31C17740.2,6152.12 17743.6,6230.69 17747.3,6308C17718.6,6305.51 17688.1,6304.26 17655.7,6304.26C17623.2,6304.26 17592.7,6305.51 17564,6308C17567.8,6230.69 17571.2,6152.12 17574.3,6072.31C17577.4,5992.5 17579,5911.45 17579,5829.14L17579,5507.41Z" style="fill:rgb(255,255,255);fill-rule:nonzero;"/>
                <path d="M19326.1,6231.31C19314.8,6241.28 19297.1,6252.2 19272.7,6264.04C19248.4,6275.89 19219.1,6286.49 19184.8,6295.84C19150.5,6305.19 19112.2,6313.61 19069.8,6321.09C19027.4,6328.58 18983.1,6332.32 18937,6332.32C18838.5,6332.32 18747.4,6318.29 18663.9,6290.23C18580.3,6262.17 18508.3,6219.46 18447.8,6162.1C18387.4,6104.74 18340,6034.59 18305.7,5951.66C18271.4,5868.74 18254.2,5774.28 18254.2,5668.28C18254.2,5562.28 18271.4,5467.82 18305.7,5384.89C18340,5301.97 18388,5231.82 18449.7,5174.46C18511.4,5117.1 18585.3,5073.45 18671.4,5043.52C18757.4,5013.59 18852.2,4998.63 18955.7,4998.63C19038,4998.63 19113.1,5007.05 19181.1,5023.88C19249,5040.72 19309.2,5060.98 19361.6,5084.67C19351.6,5102.13 19343.5,5125.83 19337.3,5155.75C19331,5185.68 19326.1,5210.62 19322.3,5230.57L19311.1,5234.32C19298.6,5219.35 19281.2,5202.52 19258.7,5183.81C19236.3,5165.11 19210.1,5147.03 19180.2,5129.57C19150.2,5112.11 19116.6,5097.46 19079.1,5085.61C19041.7,5073.76 19000.6,5067.84 18955.7,5067.84C18882.1,5067.84 18813.8,5079.69 18750.9,5103.38C18687.9,5127.07 18633,5163.55 18586.3,5212.81C18539.5,5262.06 18503,5324.41 18476.8,5399.86C18450.6,5475.3 18437.5,5564.78 18437.5,5668.28C18437.5,5771.78 18450.6,5861.26 18476.8,5936.7C18503,6012.14 18539.5,6074.49 18586.3,6123.75C18633,6173.01 18687.9,6209.49 18750.9,6233.18C18813.8,6256.87 18882.1,6268.72 18955.7,6268.72C19000.6,6268.72 19042,6263.11 19080.1,6251.88C19118.1,6240.66 19153,6227.26 19184.8,6211.67C19216.6,6196.08 19245.3,6179.24 19270.9,6161.16C19296.4,6143.08 19317.9,6127.18 19335.4,6113.47L19342.9,6120.95L19326.1,6231.31Z" style="fill:rgb(255,255,255);fill-rule:nonzero;"/>
                <path d="M20541.9,5507.41C20541.9,5425.11 20540.3,5344.37 20537.2,5265.18C20534.1,5185.99 20530.7,5105.25 20526.9,5022.95C20543.1,5025.44 20558.7,5027.62 20573.7,5029.49C20588.7,5031.36 20603.6,5032.3 20618.6,5032.3C20633.6,5032.3 20648.5,5031.36 20663.5,5029.49C20678.4,5027.62 20694,5025.44 20710.2,5022.95C20706.5,5105.25 20703.1,5185.99 20700,5265.18C20696.8,5344.37 20695.3,5425.11 20695.3,5507.41L20695.3,5829.14C20695.3,5911.45 20696.8,5992.5 20700,6072.31C20703.1,6152.12 20706.5,6230.69 20710.2,6308C20681.6,6305.51 20651,6304.26 20618.6,6304.26C20586.2,6304.26 20555.6,6305.51 20526.9,6308C20530.7,6230.69 20534.1,6152.12 20537.2,6072.31C20540.3,5992.5 20541.9,5911.45 20541.9,5829.14L20541.9,5660.8C20474.6,5659.55 20409.4,5658.61 20346.4,5657.99C20283.5,5657.37 20218.3,5657.06 20151,5657.06C20083.6,5657.06 20018.5,5657.37 19955.5,5657.99C19892.5,5658.61 19827.4,5659.55 19760,5660.8L19760,5829.14C19760,5911.45 19761.6,5992.5 19764.7,6072.31C19767.8,6152.12 19771.2,6230.69 19775,6308C19746.3,6305.51 19715.7,6304.26 19683.3,6304.26C19650.9,6304.26 19620.3,6305.51 19591.7,6308C19595.4,6230.69 19598.8,6152.12 19602,6072.31C19605.1,5992.5 19606.6,5911.45 19606.6,5829.14L19606.6,5507.41C19606.6,5425.11 19605.1,5344.37 19602,5265.18C19598.8,5185.99 19595.4,5105.25 19591.7,5022.95C19607.9,5025.44 19623.5,5027.62 19638.4,5029.49C19653.4,5031.36 19668.4,5032.3 19683.3,5032.3C19698.3,5032.3 19713.3,5031.36 19728.2,5029.49C19743.2,5027.62 19758.8,5025.44 19775,5022.95C19771.2,5105.25 19767.8,5185.99 19764.7,5265.18C19761.6,5344.37 19760,5425.11 19760,5507.41L19760,5572.88C19827.4,5574.13 19892.5,5575.38 19955.5,5576.62C20018.5,5577.87 20083.6,5578.49 20151,5578.49C20218.3,5578.49 20283.5,5577.87 20346.4,5576.62C20409.4,5575.38 20474.6,5574.13 20541.9,5572.88L20541.9,5507.41Z" style="fill:rgb(255,255,255);fill-rule:nonzero;"/>
            </g>
        </g>
    </g>
</svg>
